<?xml version="1.0" encoding="UTF-8"?>
<svg id="Layer_1" data-name="Layer 1" xmlns="http://www.w3.org/2000/svg" viewBox="0 0 239.94 158.35">
  <defs>
    <style>
      .cls-1 {
        fill: red;
        stroke: red;
        stroke-miterlimit: 10;
      }

      .cls-2 {
        fill: #ff7f00;
        font-family: ClementePDam-Bold, ClementePDam;
        font-size: 54.88px;
        font-weight: 700;
      }

      .cls-3 {
        fill: #fff;
      }

      .cls-3, .cls-4 {
        stroke-width: 0px;
      }

      .cls-4 {
        fill: #0c4286;
      }
    </style>
  </defs>
  <path class="cls-3" d="m119.84,0C79.46.19,28.33,13.39,7.19,51.56c-8.62,15.57-9.57,33.75-2.39,50.04s22.7,29.9,38.82,38.56c41.16,22.1,95.32,23.85,138.45,6.46,32.99-13.3,67.74-44.4,55.27-83.79-6.37-20.14-23.15-35.23-41.3-44.97C172.78,5.35,146.09.12,119.84,0c-7.72-.04-7.73,11.96,0,12,21.39.1,43.2,3.68,62.79,12.57,15.37,6.97,30.35,17.2,38.96,32.09,7.17,12.4,8.31,27.25,2.26,40.35-6.95,15.07-20.65,25.88-35.05,33.41-37.55,19.64-86.07,20.55-125.35,5.65C35.55,125.5,3.24,99.68,13.9,66.01c5.56-17.57,21.2-30.21,36.98-38.43,21.14-11.03,45.28-15.47,68.96-15.57C127.56,11.96,127.57-.04,119.84,0Z"/>
  <text class="cls-2" transform="translate(90.6 95.57)"><tspan x="0" y="0">+</tspan></text>
  <g>
    <path class="cls-4" d="m52.54,82.11c-1.44,2.2-1.32,4.39-.23,6.57,1.48,1.14,3.07,1.63,4.76,1.55,4.25.25,6.1-1.3,6.12-4.22v-8.66c-.68.68-2.04.91-3.17,1.36-3.56,1.58-5.55,1.45-7.48,3.4Z"/>
    <path class="cls-4" d="m73.5,45.06h-32.18c-6.38,0-11.55,5.17-11.55,11.55v40.33c0,6.38,5.17,11.55,11.55,11.55h32.18c6.38,0,11.55-5.17,11.55-11.55v-40.33c0-6.38-5.17-11.55-11.55-11.55Zm-4.19,42.25c-.17,4.76-3.28,7.32-8.68,8.16h-6.04c-5.5-.67-8.65-3.26-9.06-8.08v-3.02c.22-4.04,1.59-6.75,4.3-7.93,2.83-1.15,5.66-2.04,7.48-2.76,4.98-1.32,6.57-2.68,5.89-6.76-.45-2.72-2.93-3.43-5.89-3.36-3.51-.26-5.54,1.21-5.81,4.72h-5.74c0-3.85.56-6.21,2.95-7.93,3.85-2.27,8.72-2,8.72-2,7.59-.27,11.89,3.13,11.89,7.75v21.21Z"/>
  </g>
  <path class="cls-1" d="m189.63,50.62h-35.58c-32.25,0-34.47,52.26-1.11,52.56h36.7c36.52-1.87,32.06-53.02,0-52.56Zm-.18,42.6l-34.29.77c-23.35,0-20.02-35.58-.25-35.58h34.54c20.19,0,20.19,35.58,0,34.82Z"/>
</svg>